<svg xmlns="http://www.w3.org/2000/svg" xmlns:xlink="http://www.w3.org/1999/xlink" width="128" zoomAndPan="magnify" viewBox="0 0 96 95.999999" height="128" preserveAspectRatio="xMidYMid meet" version="1.0"><defs><clipPath id="id1"><path d="M 6.089844 6.089844 L 90 6.089844 L 90 90 L 6.089844 90 Z M 6.089844 6.089844 " clip-rule="nonzero"/></clipPath></defs><g clip-path="url(#id1)"><path fill="#0ac2ac" d="M 89.867188 47.753906 C 89.867188 70.882812 71.105469 89.644531 47.976562 89.644531 C 24.851562 89.644531 6.089844 70.882812 6.089844 47.753906 C 6.089844 24.628906 24.851562 5.867188 47.976562 5.867188 C 71.105469 5.867188 89.867188 24.628906 89.867188 47.753906 Z M 9.441406 47.753906 C 9.441406 69.03125 26.703125 86.292969 47.976562 86.292969 C 69.253906 86.292969 86.515625 69.03125 86.515625 47.753906 C 86.515625 26.480469 69.253906 9.21875 47.976562 9.21875 C 26.703125 9.21875 9.441406 26.480469 9.441406 47.753906 Z M 49.164062 34.316406 L 68.121094 53.269531 C 68.765625 53.933594 68.765625 54.980469 68.121094 55.644531 L 65.746094 58.019531 C 65.101562 58.664062 64.035156 58.664062 63.371094 58.019531 L 47.976562 42.605469 L 32.585938 58.019531 C 31.921875 58.664062 30.855469 58.664062 30.210938 58.019531 L 27.835938 55.644531 C 27.191406 54.980469 27.191406 53.933594 27.835938 53.269531 L 46.792969 34.316406 C 47.453125 33.652344 48.503906 33.652344 49.164062 34.316406 Z M 49.164062 34.316406 " fill-opacity="1" fill-rule="nonzero"/></g></svg>