<svg xmlns="http://www.w3.org/2000/svg" xmlns:xlink="http://www.w3.org/1999/xlink" width="128" zoomAndPan="magnify" viewBox="0 0 96 95.999999" height="128" preserveAspectRatio="xMidYMid meet" version="1.0"><defs><clipPath id="id1"><path d="M 16.78125 7.714844 L 79.03125 7.714844 L 79.03125 87.964844 L 16.78125 87.964844 Z M 16.78125 7.714844 " clip-rule="nonzero"/></clipPath></defs><g clip-path="url(#id1)"><path fill="#ffffff" d="M 22.800781 7.722656 L 59.230469 7.722656 C 60.339844 7.722656 61.132812 8.042969 61.921875 8.832031 L 77.921875 24.65625 C 78.554688 25.449219 79.03125 26.398438 79.03125 27.347656 L 79.03125 81.945312 C 79.03125 85.265625 76.179688 87.957031 72.851562 87.957031 L 22.800781 87.957031 C 19.472656 87.957031 16.78125 85.265625 16.78125 81.945312 L 16.78125 13.738281 C 16.78125 10.414062 19.472656 7.722656 22.800781 7.722656 Z M 73.960938 28.140625 L 63.824219 28.140625 C 60.8125 28.140625 58.4375 25.765625 58.4375 22.917969 L 58.4375 12.789062 L 22.800781 12.789062 C 22.324219 12.789062 21.847656 13.261719 21.847656 13.738281 L 21.847656 81.945312 C 21.847656 82.417969 22.324219 82.894531 22.800781 82.894531 L 72.851562 82.894531 C 73.484375 82.894531 73.960938 82.417969 73.960938 81.945312 Z M 73.960938 28.140625 " fill-opacity="1" fill-rule="evenodd"/></g><path fill="#ffffff" d="M 28.976562 61.847656 L 60.179688 61.847656 C 60.496094 61.847656 60.8125 62.164062 60.8125 62.480469 L 60.8125 65.644531 C 60.8125 65.960938 60.496094 66.277344 60.179688 66.277344 L 28.976562 66.277344 C 28.660156 66.277344 28.34375 65.960938 28.34375 65.644531 L 28.34375 62.480469 C 28.34375 62.164062 28.660156 61.847656 28.976562 61.847656 Z M 41.488281 46.179688 L 45.449219 47.445312 C 45.609375 47.445312 45.765625 47.761719 45.609375 47.921875 C 45.132812 49.976562 44.183594 51.875 42.441406 53.140625 C 40.855469 54.410156 38.796875 54.882812 36.894531 54.882812 C 34.046875 54.882812 31.667969 53.933594 29.925781 52.035156 C 27.867188 49.820312 27.074219 46.96875 27.074219 44.121094 C 27.074219 41.117188 27.867188 38.109375 29.925781 35.894531 C 31.828125 33.835938 34.203125 33.042969 37.054688 33.042969 C 39.429688 33.042969 41.648438 33.675781 43.390625 35.261719 C 44.5 36.367188 45.132812 37.792969 45.609375 39.214844 C 45.609375 39.375 45.609375 39.53125 45.609375 39.53125 C 45.449219 39.691406 45.449219 39.847656 45.292969 39.847656 L 41.171875 40.800781 C 41.171875 40.800781 41.015625 40.800781 40.855469 40.640625 C 40.855469 40.640625 40.699219 40.640625 40.699219 40.480469 C 40.539062 39.53125 40.0625 38.742188 39.429688 38.265625 C 38.636719 37.632812 37.847656 37.316406 36.894531 37.316406 C 35.472656 37.316406 34.363281 37.792969 33.570312 38.898438 C 32.460938 40.164062 32.144531 42.222656 32.144531 43.804688 C 32.144531 45.386719 32.460938 47.761719 33.570312 49.027344 C 34.363281 49.976562 35.472656 50.453125 36.738281 50.453125 C 37.6875 50.453125 38.636719 50.136719 39.273438 49.503906 C 40.222656 48.871094 40.699219 47.605469 40.855469 46.496094 C 40.855469 46.335938 41.015625 46.335938 41.015625 46.179688 C 41.171875 46.179688 41.332031 46.179688 41.488281 46.179688 Z M 57.804688 47.445312 L 62.238281 33.675781 C 62.398438 33.519531 62.554688 33.359375 62.714844 33.359375 L 67.148438 33.359375 C 67.148438 33.359375 67.308594 33.519531 67.46875 33.519531 C 67.46875 33.675781 67.46875 33.835938 67.46875 33.992188 L 60.179688 54.25 C 60.179688 54.410156 60.023438 54.566406 59.863281 54.566406 L 55.429688 54.566406 C 55.269531 54.566406 55.113281 54.410156 54.953125 54.25 L 47.824219 33.992188 C 47.667969 33.835938 47.667969 33.675781 47.824219 33.519531 C 47.824219 33.519531 47.984375 33.359375 48.140625 33.359375 L 52.578125 33.359375 C 52.734375 33.359375 52.894531 33.519531 53.054688 33.675781 Z M 28.976562 72.132812 L 49.09375 72.132812 C 49.410156 72.132812 49.726562 72.449219 49.726562 72.921875 L 49.726562 76.089844 C 49.726562 76.40625 49.410156 76.722656 49.09375 76.722656 L 28.976562 76.722656 C 28.660156 76.722656 28.34375 76.40625 28.34375 76.089844 L 28.34375 72.921875 C 28.34375 72.449219 28.660156 72.132812 28.976562 72.132812 Z M 28.976562 72.132812 " fill-opacity="1" fill-rule="evenodd"/></svg>